<?xml version="1.0" encoding="utf-8"?>
<!-- Generator: Adobe Illustrator 28.0.0, SVG Export Plug-In . SVG Version: 6.00 Build 0)  -->
<svg version="1.1" id="Слой_1" xmlns="http://www.w3.org/2000/svg" xmlns:xlink="http://www.w3.org/1999/xlink" x="0px" y="0px"
	 viewBox="0 0 128 128" style="enable-background:new 0 0 128 128;" xml:space="preserve" fill="#CD373A">
<path d="M22.2,36.5c-0.9-0.6-2.2-0.3-2.7,0.7l-0.5,0.9c-0.6,0.9-0.3,2.2,0.6,2.8c0.9,0.6,2.2,0.3,2.8-0.6c0,0,0.1-0.1,0.1-0.1
	l0.5-0.8C23.4,38.3,23.1,37.1,22.2,36.5z"/>
<path d="M19.3,86.5c-1,0.5-1.3,1.8-0.8,2.7c0,0,0,0,0,0l0.5,0.9c0.6,0.9,1.8,1.2,2.8,0.6c0.9-0.6,1.2-1.7,0.7-2.6L22,87.2
	C21.5,86.3,20.3,85.9,19.3,86.5C19.3,86.5,19.3,86.5,19.3,86.5z"/>
<path d="M16,64.1L16,64.1c0-0.4,0-0.7,0-1c0-1.1-0.9-2-2-2l0,0c-1.1,0-2,0.9-2,2c0,0.3,0,0.6,0,0.9v0.1c0,1.1,0.9,2,2,2
	S16,65.3,16,64.1L16,64.1z"/>
<path d="M13.8,77.6c0.2,1.1,1.2,1.8,2.3,1.6c1.1-0.2,1.8-1.2,1.6-2.3c0-0.1,0-0.2-0.1-0.3c-0.1-0.3-0.2-0.6-0.2-0.9
	c-0.3-1.1-1.4-1.7-2.4-1.4c-1.1,0.3-1.7,1.4-1.4,2.4l0,0C13.6,76.9,13.7,77.2,13.8,77.6z"/>
<path d="M16.5,48.3c-1.1-0.3-2.2,0.3-2.5,1.4c0,0,0,0,0,0c-0.1,0.3-0.2,0.7-0.3,1c-0.3,1.1,0.3,2.2,1.3,2.5c1.1,0.3,2.2-0.3,2.5-1.3
	c0,0,0-0.1,0-0.1c0.1-0.3,0.2-0.6,0.3-0.9C18.1,49.7,17.5,48.6,16.5,48.3z"/>
<path d="M76.3,17.6l0.9,0.2c1.1,0.2,2.1-0.5,2.3-1.6c0.2-1-0.3-1.9-1.2-2.2l-1-0.3c-1.1-0.3-2.2,0.3-2.5,1.3
	c-0.3,1.1,0.3,2.2,1.3,2.5C76.2,17.6,76.3,17.6,76.3,17.6L76.3,17.6z"/>
<path d="M63.8,16h1c1.1,0,2-0.9,2-2s-0.9-2-2-2h-1c-1.1,0-2,0.9-2,2S62.7,16,63.8,16z"/>
<path d="M50.9,17.7c0.2,0,0.4,0,0.5-0.1l0.9-0.2c1.1-0.3,1.7-1.4,1.4-2.4s-1.4-1.7-2.4-1.4l-1,0.3c-1.1,0.3-1.7,1.4-1.4,2.5
	C49.2,17.1,50,17.7,50.9,17.7L50.9,17.7z"/>
<path d="M38.9,22.8c0.4,0,0.7-0.1,1-0.3l0.8-0.5c1-0.5,1.3-1.8,0.8-2.7c-0.5-1-1.8-1.3-2.7-0.8L37.9,19c-1,0.6-1.3,1.8-0.7,2.7
	C37.5,22.4,38.2,22.8,38.9,22.8L38.9,22.8z"/>
<path d="M105.8,91.6c0.9,0.6,2.2,0.3,2.7-0.7c0,0,0,0,0,0L109,90c0.5-1,0.1-2.2-0.8-2.7c-0.9-0.5-2.1-0.2-2.6,0.7l-0.5,0.8
	C104.5,89.8,104.8,91,105.8,91.6C105.8,91.6,105.8,91.6,105.8,91.6z"/>
<path d="M107.7,41.7c1.1,0,2-0.9,2-2c0-0.4-0.1-0.7-0.3-1l-0.5-0.9c-0.6-0.9-1.9-1.1-2.8-0.5c-0.8,0.6-1.1,1.6-0.7,2.5l0.5,0.8
	C106.3,41.3,107,41.7,107.7,41.7z"/>
<path d="M63.1,112L63.1,112c-1.1,0-2,0.9-2,2s0.9,2,2,2h1c1.1,0,2-0.9,2-2s-0.9-2-2-2H63.1z"/>
<path d="M87.9,22.3l0.8,0.5c0.9,0.6,2.2,0.3,2.7-0.7c0.6-0.9,0.3-2.2-0.7-2.7l-0.9-0.5c-1-0.6-2.2-0.2-2.7,0.7
	C86.6,20.6,86.9,21.8,87.9,22.3L87.9,22.3z"/>
<path d="M88,105.6l-0.8,0.5c-1,0.5-1.4,1.7-0.9,2.7s1.7,1.4,2.7,0.9c0,0,0.1,0,0.1-0.1L90,109c0.9-0.6,1.2-1.8,0.6-2.8
	C90.1,105.4,88.9,105.1,88,105.6L88,105.6z"/>
<path d="M114.2,50.3c-0.2-1.1-1.2-1.8-2.3-1.6c-1.1,0.2-1.8,1.2-1.6,2.3c0,0.1,0,0.2,0.1,0.3c0.1,0.3,0.2,0.6,0.2,0.9
	c0.3,1.1,1.4,1.7,2.4,1.4c1.1-0.3,1.7-1.4,1.4-2.4C114.4,51,114.3,50.7,114.2,50.3z"/>
<path d="M111.5,79.8c1.1,0.3,2.2-0.3,2.5-1.3c0,0,0,0,0,0c0.1-0.3,0.2-0.7,0.3-1c0.4-1-0.2-2.2-1.2-2.5s-2.2,0.2-2.5,1.2
	c0,0.1-0.1,0.2-0.1,0.3c-0.1,0.3-0.2,0.6-0.3,0.9C109.9,78.4,110.5,79.5,111.5,79.8z"/>
<path d="M76.5,110.4l-0.9,0.2c-1.1,0.3-1.7,1.4-1.4,2.4c0.3,1.1,1.4,1.7,2.4,1.4l1-0.3c1.1-0.2,1.8-1.2,1.6-2.3
	c-0.2-1.1-1.2-1.8-2.3-1.6C76.7,110.3,76.6,110.3,76.5,110.4L76.5,110.4z"/>
<path d="M39.2,105.1c-0.9-0.6-2.2-0.3-2.8,0.6c-0.6,0.9-0.3,2.2,0.6,2.8c0,0,0.1,0,0.1,0.1l0.9,0.5c0.9,0.6,2.2,0.3,2.8-0.6
	s0.3-2.2-0.6-2.8c0,0-0.1-0.1-0.1-0.1L39.2,105.1z"/>
<path d="M112,63.8V64c0,0.3,0,0.7,0,1c0,1.1,0.9,2,2,2l0,0c1.1,0,2-0.9,2-2c0-0.3,0-0.7,0-1v-0.2c0-1.1-0.9-2-2-2S112,62.7,112,63.8
	z"/>
<path d="M50.7,110.1c-1.1-0.3-2.2,0.3-2.5,1.4c-0.3,1.1,0.3,2.2,1.4,2.5l1,0.3c1.1,0.2,2.1-0.4,2.4-1.5c0.2-1-0.4-2-1.4-2.3
	L50.7,110.1z"/>
<path d="M9,25.5c0.5,0.5,1.3,0.7,1.9,0.5l9.4-2.8l11.1,11.1l2.6-2.7l0.2-0.1L23.5,20.6L26,10.2c0.2-0.7-0.1-1.4-0.6-1.9L17,0.5
	c-0.5-0.5-1.3-0.7-1.9-0.4l-11,3.3C3.4,3.6,2.8,4.1,2.7,4.8l-2.6,11c-0.2,0.7,0.1,1.4,0.6,1.9L9,25.5z M6.3,6.9l8.8-2.6l6.7,6.2
	l-2.1,8.7l-8.8,2.6l-6.7-6.2L6.3,6.9z"/>
<path d="M102.6,119.7l8.4,7.7c0.5,0.5,1.3,0.7,1.9,0.4l11-3.3c0.7-0.2,1.2-0.8,1.4-1.4l2.6-11c0.2-0.7-0.1-1.4-0.6-1.9l-8.4-7.8
	c-0.5-0.5-1.3-0.7-1.9-0.4l-9.4,2.8L97.1,94.3L97,94.5l-2.7,2.7l10.2,10.2l-2.5,10.4C101.9,118.5,102.1,119.2,102.6,119.7z
	 M108.3,108.9l8.8-2.6l6.7,6.2l-2.1,8.7l-8.8,2.6l-6.7-6.2L108.3,108.9z"/>
<path d="M94,31.5l2.7,2.7l11.1-11.1l9.4,2.8c0.7,0.2,1.4,0,1.9-0.5l8.4-7.7c0.5-0.5,0.8-1.2,0.6-1.9l-2.6-11
	c-0.2-0.7-0.7-1.2-1.4-1.5l-11-3.3c-0.7-0.2-1.4-0.1-2,0.4l-8.4,7.7c-0.5,0.5-0.8,1.2-0.6,1.9l2.5,10.4L93.8,31.4L94,31.5z
	 M112.9,4.2l8.8,2.6l2.1,8.7l-6.7,6.2l-8.8-2.6l-2.1-8.7L112.9,4.2z"/>
<path d="M33.5,45.9l2.8,2.7c-1.3,2.3-2.4,4.8-3.1,7.4h-3.9c-3.3,0.1-5.9,2.9-5.8,6.3v4.3c-0.1,3.3,2.5,6.1,5.8,6.3h3.9
	c0.7,2.6,1.7,5.1,3.1,7.4l-2.8,2.8c-2.2,2.5-2.1,6.3,0.3,8.5l3,3c1.2,1.2,2.9,1.9,4.6,1.9c1.5,0,2.9-0.6,4-1.6l2.8-2.8
	c2.3,1.3,4.8,2.4,7.4,3.1v3.9c0.1,3.3,2.9,6,6.3,5.8h4.3c3.3,0.1,6.1-2.5,6.3-5.8v-3.9c2.6-0.7,5.1-1.7,7.4-3.1l2.7,2.8
	c1.1,1.1,2.5,1.6,4,1.6c1.7,0,3.4-0.7,4.6-1.9l3-3c1.2-1.2,1.9-2.9,1.9-4.7c0-1.5-0.6-2.9-1.6-4l-2.8-2.8c1.3-2.3,2.4-4.8,3.1-7.4
	h3.9c3.3-0.1,5.9-2.9,5.8-6.3v-4.2c0.1-3.3-2.5-6.1-5.8-6.3h-3.9c-0.7-2.6-1.7-5.1-3.1-7.4l2.8-2.8c2.3-2.5,2.1-6.3-0.3-8.5l-3-3
	c-1.2-1.2-2.9-1.9-4.6-2c-1.5,0-2.9,0.6-4,1.6l-2.8,2.8c-2.3-1.3-4.8-2.4-7.4-3.1v-3.9c-0.1-3.3-2.9-5.9-6.3-5.8h-4.3
	c-3.3-0.1-6.1,2.5-6.3,5.8v3.9c-2.6,0.7-5.1,1.7-7.4,3.1L45.4,34c-1.1-1-2.5-1.6-4-1.6c-1.7,0-3.4,0.7-4.6,2l-3,3
	C31.4,39.6,31.2,43.5,33.5,45.9z M36.7,40.2l3-3c0.5-0.5,1.1-0.8,1.8-0.8c0.4,0,0.8,0.1,1.1,0.4l3.9,3.9c0.7,0.7,1.7,0.8,2.5,0.3
	c2.8-1.8,5.9-3.1,9.1-3.8c0.9-0.2,1.6-1,1.6-2v-5.4c0.2-1.1,1.2-1.9,2.3-1.8h4.3c1.1-0.1,2.1,0.7,2.3,1.8v5.5c0,1,0.6,1.8,1.6,2
	c3.2,0.7,6.3,2,9.1,3.8c0.8,0.5,1.8,0.4,2.5-0.3l3.9-3.9c0.3-0.3,0.7-0.4,1.1-0.4c0.7,0,1.3,0.3,1.8,0.8l3,3c0.9,0.7,1,2,0.3,2.9
	L87.8,47c-0.7,0.7-0.8,1.7-0.3,2.5c1.8,2.8,3.1,5.8,3.8,9.1c0.2,0.9,1,1.6,2,1.6h5.4c1.1,0.2,1.9,1.2,1.8,2.3v4.3
	c0.1,1.1-0.7,2.1-1.8,2.3h-5.4c-1,0-1.8,0.6-2,1.6c-0.7,3.2-2,6.3-3.8,9.1c-0.5,0.8-0.4,1.8,0.3,2.5l3.9,3.9
	c0.3,0.3,0.5,0.7,0.5,1.1c0,0.7-0.3,1.3-0.8,1.8l-3,3c-0.5,0.5-1.1,0.8-1.8,0.8c-0.4,0-0.8-0.1-1.1-0.4l-3.9-3.8
	c-0.7-0.7-1.7-0.8-2.5-0.3c-2.8,1.8-5.8,3.1-9.1,3.8c-0.9,0.2-1.6,1-1.6,2v5.4c-0.2,1.1-1.2,1.9-2.3,1.8h-4.3
	c-1.1,0.1-2.1-0.7-2.3-1.8v-5.4c0-1-0.6-1.8-1.6-2c-3.2-0.7-6.3-2-9.1-3.8c-0.8-0.5-1.8-0.4-2.5,0.3l-3.9,3.8
	c-0.3,0.3-0.7,0.5-1.1,0.4c-0.7,0-1.3-0.3-1.8-0.8l-3-3c-0.9-0.7-1-2-0.3-2.9l3.9-3.9c0.7-0.7,0.8-1.7,0.3-2.5
	c-1.8-2.8-3.1-5.8-3.8-9.1c-0.2-0.9-1-1.6-2-1.6h-5.4c-1.1-0.2-1.9-1.2-1.8-2.3v-4.2c-0.1-1.1,0.7-2.1,1.8-2.3h5.5
	c1,0,1.8-0.6,2-1.6c0.7-3.2,2-6.3,3.8-9.1c0.5-0.8,0.4-1.8-0.3-2.5l-3.9-3.9C35.7,42.2,35.8,40.9,36.7,40.2z"/>
<path d="M64,83.5c1,0,2-0.1,3-0.2c1.1-0.2,1.9-1.2,1.7-2.3c-0.2-1.1-1.2-1.9-2.3-1.7c-8.5,1.3-16.4-4.5-17.7-13
	c-1.3-8.5,4.5-16.4,13-17.7s16.4,4.5,17.7,13c0.5,3.3-0.1,6.7-1.6,9.6c-0.5,1-0.1,2.2,0.9,2.7c1,0.5,2.1,0.1,2.7-0.8
	c5-9.5,1.4-21.3-8.1-26.4c-9.5-5-21.3-1.4-26.4,8.1s-1.4,21.3,8.1,26.4C57.7,82.7,60.8,83.5,64,83.5z"/>
<circle cx="74" cy="78" r="2"/>
<circle cx="115" cy="115" r="2"/>
<circle cx="13" cy="115" r="2"/>
<circle cx="115" cy="13" r="2"/>
<circle cx="13" cy="13" r="2"/>
<path d="M2.7,123.2c0.2,0.7,0.7,1.2,1.4,1.4l11,3.3c0.7,0.2,1.4,0,1.9-0.4l8.4-7.7c0.5-0.5,0.8-1.2,0.6-1.9l-2.5-10.4l10.2-10.2
	L31,94.5l-0.1-0.2l-10.5,10.6l-9.4-2.8c-0.7-0.2-1.4,0-1.9,0.4l-8.4,7.7c-0.5,0.5-0.8,1.2-0.6,1.9L2.7,123.2z M10.9,106.2l8.8,2.6
	l2.1,8.7l-6.7,6.2l-8.8-2.6l-2.1-8.7L10.9,106.2z"/>
</svg>
