<?xml version="1.0" encoding="utf-8"?>
<!-- Generator: Adobe Illustrator 28.0.0, SVG Export Plug-In . SVG Version: 6.00 Build 0)  -->
<svg version="1.1" id="Слой_1" xmlns="http://www.w3.org/2000/svg" xmlns:xlink="http://www.w3.org/1999/xlink" x="0px" y="0px"
	 viewBox="0 0 23.3 28" style="enable-background:new 0 0 23.3 28;" xml:space="preserve" fill="#0B68B8">
<path d="M11.7,28c-0.2,0-0.4-0.1-0.6-0.2C0.8,20.7,0,13.8,0,5.6c0-0.5,0.4-1,0.9-1.1C6.4,3.4,11,0.2,11,0.2c0.4-0.3,0.9-0.3,1.3,0
	c0,0,4.6,3.2,10.1,4.3c0.5,0.1,0.9,0.5,0.9,1.1c0,8.3-0.8,15.1-11,22.2C12.1,27.9,11.9,28,11.7,28z M2.2,6.5c0.1,7.5,1,13,9.5,19.1
	c8.5-6.1,9.4-11.6,9.5-19.1c-4.4-1-8-3.1-9.5-4.1C10.2,3.3,6.6,5.4,2.2,6.5z"/>
<path d="M11.2,18.1c-0.4,0-0.7-0.1-1-0.4l-3.6-3.6c-0.5-0.5-0.6-1.4,0-2c0.5-0.5,1.4-0.6,2,0l2.7,2.6l5.3-5.3c0.5-0.5,1.4-0.5,2,0
	s0.5,1.4,0,2l-6.3,6.3C11.9,17.9,11.5,18.1,11.2,18.1z"/>
</svg>
