<?xml version="1.0" encoding="utf-8"?>
<!-- Generator: Adobe Illustrator 28.0.0, SVG Export Plug-In . SVG Version: 6.00 Build 0)  -->
<svg version="1.1" id="Слой_1" xmlns="http://www.w3.org/2000/svg" xmlns:xlink="http://www.w3.org/1999/xlink" x="0px" y="0px"
	 viewBox="0 0 438.5 412" style="enable-background:new 0 0 438.5 412;" xml:space="preserve" fill="#3A9DD0">
<g>
	<path d="M218.3,42.7c-5.5,0-10,4.5-10,10v30.5c0,5.5,4.5,10,10,10c5.5,0,10-4.5,10-10V52.7C228.3,47.1,223.8,42.7,218.3,42.7z"/>
	<path d="M282.3,42.7c-5.5,0-10,4.5-10,10v30.5c0,5.5,4.5,10,10,10s10-4.5,10-10V52.7C292.3,47.1,287.8,42.7,282.3,42.7z"/>
	<path d="M72.9,35.5C55,35.5,40.4,50,40.4,67.9s14.5,32.4,32.4,32.4c17.9,0,32.4-14.5,32.4-32.4C105.3,50,90.8,35.5,72.9,35.5z
		 M72.9,80.3c-6.9,0-12.4-5.6-12.4-12.4S66,55.5,72.9,55.5c6.9,0,12.4,5.6,12.4,12.4C85.2,74.7,79.7,80.2,72.9,80.3L72.9,80.3z"/>
	<path d="M228.3,248.2v-30.5c0-5.5-4.5-10-10-10c-5.5,0-10,4.5-10,10v30.5c0,5.5,4.5,10,10,10C223.8,258.2,228.3,253.7,228.3,248.2
		L228.3,248.2z"/>
	<path d="M72.9,200.5C55,200.5,40.4,215,40.4,233c0,17.9,14.5,32.4,32.4,32.4c17.9,0,32.4-14.5,32.4-32.4
		C105.3,215.1,90.8,200.5,72.9,200.5z M72.9,245.4c-6.9,0-12.4-5.6-12.4-12.4s5.6-12.4,12.4-12.4c6.9,0,12.4,5.6,12.4,12.4
		C85.2,239.8,79.7,245.3,72.9,245.4z"/>
	<path d="M337.8,193.2c-8.3-17.4-25.9-28.4-45.1-28.2H182.3v-29h110.5c27.3,0.1,49.5-22,49.5-49.3c0-0.1,0-0.3,0-0.4V49.5
		c0.1-27.2-21.8-49.4-49-49.5c-0.2,0-0.4,0-0.6,0H51.9C24.7-0.2,2.4,21.8,2.3,49c0,0.2,0,0.3,0,0.5v36.8
		c-0.1,27.3,22,49.6,49.3,49.7c0.1,0,0.2,0,0.3,0h110.3v29H51.9c-27.3-0.2-49.5,21.8-49.7,49.1c0,0.1,0,0.3,0,0.4v36.8
		c-0.1,27.3,22,49.5,49.3,49.6c0.1,0,0.2,0,0.4,0h110.3v28.6c-15.1,3.7-26.9,15.3-30.7,30.4H56.7c-5.6-15.1-22.4-22.9-37.6-17.3
		s-22.9,22.4-17.3,37.6c4.2,11.5,15.2,19.1,27.4,19.1c12.6,0,23.4-7.4,27.5-19.4h74.8c5.5,22.5,28.3,36.3,50.8,30.8
		c15.2-3.7,27.1-15.6,30.8-30.8h51.2c18.4,16,42.2,24.9,68,24.9c58.5,0,106.2-47.4,106.2-105.9C438.5,242.3,393.8,196.1,337.8,193.2
		z M323.3,87c0,16.6-13.4,30-30,30l0,0h-241c-16.6,0-30-13.4-30-30l0,0V50c0-16.6,13.4-30,30-30h241c16.6,0,30,13.4,30,30V87z
		 M22.3,251.4v-36.8c-0.1-16.2,13-29.5,29.2-29.6c0.2,0,0.3,0,0.5,0h240.8c8.4-0.2,16.4,3.2,22.1,9.3c-44.5,7.4-79.8,42.7-87.2,86.7
		H51.9c-16.3,0.1-29.6-13-29.7-29.2C22.3,251.6,22.3,251.5,22.3,251.4z M226.2,301c0.5,22,7.7,43,19.6,59h-32.7
		c-3.7-15-15.9-26.6-30.9-30.4V301H226.2z M29.2,379.7c-5.1,0-9.2-4.1-9.2-9.2c0-5.1,4.1-9.2,9.2-9.2c5.1,0,9.2,4.1,9.2,9.2
		c0,0,0,0,0,0C38.4,375.6,34.3,379.7,29.2,379.7z M172.3,392.5c-12.2,0-22-9.9-22-22s9.9-22,22-22c12.2,0,22,9.9,22,22l0,0
		c0.1,12-9.5,21.9-21.6,22C172.6,392.5,172.5,392.5,172.3,392.5L172.3,392.5z M332.3,385.2c-47.6,0-86.2-38.6-86.2-86.2
		c0-47.6,38.6-86.2,86.2-86.2c47.6,0,86.2,38.6,86.2,86.2C418.4,346.6,379.9,385.1,332.3,385.2L332.3,385.2z"/>
	<path d="M340.3,301.2v-49c0-5.5-4.5-10-10-10s-10,4.5-10,10v53.1c0,2.7,1.1,5.2,3.1,7.1l26.8,26.7c3.9,3.9,10.2,3.9,14.1,0
		s3.9-10.2,0-14.1c0,0,0,0-0.1-0.1L340.3,301.2z"/>
</g>
</svg>
